PathFileType	4	(X/Y/Z)	Patient4_TMGait_0pt5_02_left_04.trc.trc
DataRate	CameraRate	NumFrames	NumMarkers	Units	OrigDataRate	OrigDataStartFrame	OrigNumFrames
75.675675675676	75.675675675676	4	33	mm	75.675675675676	18	       141
Frame#	Time	Sacral			L.Shoulder			Chest			R.Shoulder			Neck			R.ASIS			L.ASIS			R.Thigh.Superior			R.Thigh.Lateral			R.Thigh.Inferior			R.Patella			L.Thigh.Superior			L.Thigh.Lateral			L.Thigh.Inferior			L.Patella			L.Shank.Superior			L.Shank.Lateral			L.Shank.Inferior			R.Shank.Superior			R.Shank.Lateral			R.Shank.Inferior			R.Heel			R.Midfoot.Superior			R.Midfoot.Lateral			R.Toe			L.Heel			L.Midfoot.Lateral			L.Midfoot.Superior			L.Toe			L.Elbow			L.Wrist			R.Elbow			R.Wrist			
		X1	Y1	Z1	X2	Y2	Z2	X3	Y3	Z3	X4	Y4	Z4	X5	Y5	Z5	X6	Y6	Z6	X7	Y7	Z7	X8	Y8	Z8	X9	Y9	Z9	X10	Y10	Z10	X11	Y11	Z11	X12	Y12	Z12	X13	Y13	Z13	X14	Y14	Z14	X15	Y15	Z15	X16	Y16	Z16	X17	Y17	Z17	X18	Y18	Z18	X19	Y19	Z19	X20	Y20	Z20	X21	Y21	Z21	X22	Y22	Z22	X23	Y23	Z23	X24	Y24	Z24	X25	Y25	Z25	X26	Y26	Z26	X27	Y27	Z27	X28	Y28	Z28	X29	Y29	Z29	X30	Y30	Z30	X31	Y31	Z31	X32	Y32	Z32	X33	Y33	Z33	

18	4.664642857143	561.435417370244	1018.252515941723	555.670138188814	752.412925610592	1428.900422214529	355.165648426527	866.771466369523	1349.015487854305	503.625224711244	813.474797470598	1434.439395103453	685.204076934150	776.918413196216	1489.993493250993	504.389119916418	791.707043909419	933.612671040015	649.525551519672	755.605734078369	959.469636791295	376.875313377214	804.771134546383	726.674285732821	615.533496556561	712.908492554495	627.453764833822	677.423653461561	775.355195539853	567.192965413035	591.970969863129	763.214187274977	479.329674732101	594.944950070093	827.501362400415	776.007356882985	411.208155668283	782.056968001206	653.377104581458	330.516410468692	877.628136582967	589.139843974388	399.628440503363	905.463286973886	526.232550009540	395.786612595554	892.032959609629	456.986773361717	381.999817986304	836.334445242462	325.060920707138	324.696855456774	924.916232870912	229.809388729658	383.952310187289	725.252299801048	395.111496135096	601.576497770300	645.412318579024	299.112106964345	663.604655340842	671.101069803028	201.927255228476	596.906347640897	518.584530499229	45.764977839753	567.262515084314	690.841489147810	96.294220643970	601.718584791646	601.966043590856	37.114058978408	641.338042227425	810.149871154252	40.053390863890	630.833104972912	850.638917187833	41.305085328921	416.326901347794	926.157607622877	55.701497320756	338.731643218689	989.020857311181	138.819808703033	363.242726495332	1125.217121361243	123.494723272283	340.500260306373	634.164802345834	1086.932493581039	262.931282075892	645.774136761973	827.556022350881	244.286400957534	891.661115421782	1106.977499247334	807.974888828656	1129.775153002556	1108.060186568787	725.980128941890	
19	4.677857142857	562.266015132392	1017.605478816652	554.104302827565	752.001230377288	1428.712893030969	353.809700106853	866.577521890127	1348.931437991911	502.099798701340	813.237183565911	1434.122115144510	683.691314336609	776.394668830564	1489.673110469465	503.128814877457	792.416914874006	933.478344677191	648.433580401387	756.681527242652	958.371549345261	375.636503976630	803.112145424316	725.851334851796	614.771859302364	710.106888981192	627.431017697725	677.023754677896	771.745217348860	566.380001939753	591.882070091226	758.683791261217	478.769875650574	594.830333697040	828.173248733240	774.396207740393	409.875360369612	781.022794316033	651.299745933824	330.073757607135	876.880712513508	587.024516737186	398.483968437061	904.329229056368	524.383441648891	395.120205955853	890.973281847636	455.220578781551	381.692331667673	835.360439852210	322.928605656707	325.422772582824	924.693507619946	228.259697378494	384.465872938855	720.257397556003	394.841372483497	601.449680806321	639.943420833878	299.331360280648	663.552218928767	665.130202048840	201.924797699159	596.954501886671	511.952524078410	46.096666055804	567.342474917525	684.292264742700	96.311901900540	601.779421429562	595.344323161141	37.209425939347	641.346895570906	803.500914341931	39.902745519154	630.859722344778	850.864063026172	40.583123256060	418.249946625789	926.008189944899	54.003491402811	340.189747913498	989.452834110141	136.686438175490	363.891102337523	1125.338484693186	120.321127951066	340.609300309905	630.343010622450	1088.043459519668	262.459512921483	639.940607060190	828.387553463845	245.413628127934	897.062373512971	1107.266105580571	803.185029570101	1133.821933374016	1115.942515717527	718.761534748012	
20	4.691071428571	563.297420075677	1016.778839772781	552.276950427880	751.638668209373	1428.398017347290	352.236870499136	866.386597116510	1348.846021940573	500.459537906090	812.766850235388	1433.751051862548	682.023151006788	775.749240413600	1489.270320843094	501.664277070660	793.300176446638	933.296438701770	647.309927605687	758.124878322445	957.091756201629	374.374667342223	801.589712274767	724.976683122741	614.075861757687	707.292514709888	627.428907384256	676.627565448793	768.132916417073	565.549057155671	591.863406817728	754.100235836708	478.197495664564	594.759294321665	829.205504375493	772.541355940943	408.490076016977	780.202318310869	648.960652684217	329.670056539501	876.369882193201	584.726980856949	397.385633051070	903.336454106765	522.123945687406	394.496772920779	889.745470874945	452.901478548862	381.471642482546	833.537703610701	320.559271201992	326.182524463408	923.068034036945	225.989158316008	385.019868989281	715.207615542356	394.589164088917	601.354120591773	634.405445029080	299.567822903307	663.527772846080	659.127231566250	201.938589384300	597.022059233982	505.318043096969	46.437185035450	567.433056162338	677.736433405091	96.326757209964	601.838121576610	588.721035848337	37.316132272244	641.375264907332	796.853873173235	39.758484068779	630.887215375303	848.544408558215	39.781696812204	419.975355391438	923.441291332716	51.824152597225	341.513229312233	988.033559261477	133.483527762667	364.633131484363	1123.478817361408	115.082426584906	340.861158812666	627.122735880251	1088.881893698395	261.750980542705	635.044155912650	828.949653349964	246.491873638329	901.791574735757	1107.455993916051	798.262934557105	1137.096546679738	1122.696597028531	711.584795246421	
21	4.704285714286	564.519378640264	1015.773085466050	550.210664780428	751.339356038304	1427.940119071839	350.443438539943	866.212229886467	1348.744087132284	498.701788746387	812.085284774901	1433.309260014603	680.201162735785	775.007668836191	1488.775866366957	499.984739859376	794.351043871117	933.044456891753	646.148476181282	759.905101803530	955.643214299212	373.093921989718	800.251898344573	724.037311048937	613.466621795880	704.499184595757	627.434730034033	676.219590492508	764.573392895809	564.691861743046	591.899723939966	749.526568360635	477.598908441879	594.710143751607	830.527947628993	770.435199859120	407.077535141630	779.589821599782	646.419581379568	329.266303240066	876.055563994686	582.279669275367	396.346021780169	902.434966763559	519.516537712678	393.938621598390	888.406724613457	450.125340269132	381.322719740131	831.098695232706	317.978340301806	326.919168702561	920.357421424734	223.116809781455	385.607436612747	710.154230711039	394.346408165622	601.269741720058	628.837548551591	299.821629069274	663.518362861723	653.111327209630	201.964497701734	597.096794760589	498.684119915076	46.796781531960	567.537574347076	671.173689768463	96.338342407722	601.888130950444	582.098951888908	37.440283994591	641.426200519051	790.211209065183	39.614839236509	630.917216623012	844.171446638717	38.930646537784	421.442910699665	918.967767879684	49.289010597804	342.678412096051	985.171808662819	129.395881563907	365.501969316430	1120.072096873058	108.106588589682	341.357277235990	624.540682810168	1089.404379892667	260.765202865328	631.082744013216	829.205827447042	247.483792026624	905.822079651653	1107.508714526664	793.297438557562	1139.648300317637	1128.301596142869	704.492103767867	
